<?xml version="1.0" encoding="utf-8"?>
<!-- Generator: Adobe Illustrator 21.0.0, SVG Export Plug-In . SVG Version: 6.00 Build 0)  -->
<svg version="1.1" id="Layer_1" xmlns="http://www.w3.org/2000/svg" xmlns:xlink="http://www.w3.org/1999/xlink" x="0px" y="0px"
	 viewBox="0 0 120 60" style="enable-background:new 0 0 120 60;" xml:space="preserve">
<style type="text/css">
	.st0{fill:#FC211A;}
</style>
<path class="st0" d="M43.2,43.7l0.6,13c-4.7,1.4-9.5,2.2-13.8,2.2c-16.2,0-27.9-9.7-27.9-29.3C2.3,13,11.7,1,30,1
	c7.3,0,12.2,2,13.5,2.6l-0.8,12.3c-1.8-1-6.2-3.2-10.9-3.2c-9.6,0-14.1,6.2-14.1,17.1c0,9.6,5.3,17,14.7,17
	C37.9,46.8,41.8,44.6,43.2,43.7z M74.1,26.1l-6.7-3c-5-2.2-6.4-3.5-6.4-6.4c0-3.4,2.7-5.3,7.2-5.3c4.3,0,8.9,1.4,11.5,2.8l0.6-11
	C75.8,1.4,70.5,1,66.3,1C54.4,1,46,7,46,17.6c0,7.9,2.8,12.9,12,16.5l3.3,1.3c4.3,1.7,6.8,2.7,6.8,6.4c0,3.5-2,6-7.7,6
	c-5.4,0-10.8-2.3-12.6-3.4l-0.9,12.2c2.8,0.7,8.2,2.2,14.9,2.2c13,0,21.8-6.2,21.8-18.5C83.6,32,79.2,28.4,74.1,26.1z M101.6,46.5V2
	h-15v55.9H118V46.5H101.6z M109.3,3.6L109.3,3.6l1,3h1l1-3h0v3h1.2V2h-1.7l-1,2.7h0l-1-2.7H108v4.6h1.2V3.6z M105,6.6h1.2V3h1.3V2
	h-3.8v1h1.3V6.6z"/>
</svg>
